<svg version="1" xmlns="http://www.w3.org/2000/svg" width="682.667" height="682.667" viewBox="0 0 512.000000 512.000000"><path d="M0 257.3v172.4l181.3-.2c99.6-.1 183.5-.5 186.2-1 44.3-6.6 77.4-25 105.8-58.5 4.2-5 16.7-23.4 16.7-24.6 0-.4.6-1.5 1.3-2.3 2-2.4 8.4-17.1 11.7-26.9 3-8.9 5.7-20.2 6.6-27.7.3-2.2.9-6.9 1.4-10.5 1.2-10.2.4-43.3-1.4-52.8-7-37.6-21.9-66.4-47.6-92.2-24.5-24.4-50.7-38.5-83.5-44.9-13.8-2.7-22.5-2.9-96.5-3l-77.6-.1.1 128.2c0 70.6-.1 129-.3 129.8-.3 1.3-7.5 1.5-58 1.5H88.5L88.3 219c-.1-69-.2-127.4-.2-129.8L88 85H0v172.3zm365.5-84.8c29.3 7.5 50.7 29.6 57.6 59.5 1.8 7.7 2.4 14.1 2.3 26 0 10.1-.3 13.7-1.8 22.5-.1 1.1-1.1 4.6-2 7.8-9 30.8-33.6 51.7-65.1 55.4-3.3.4-18.4.7-33.5.7l-27.5.1-.3-87.2-.2-87.1 31.7.2c26.7.2 32.9.6 38.8 2.1z"/></svg>