<?xml version="1.0" standalone="no"?>
<!DOCTYPE svg PUBLIC "-//W3C//DTD SVG 20010904//EN"
 "http://www.w3.org/TR/2001/REC-SVG-20010904/DTD/svg10.dtd">
<svg version="1.0" xmlns="http://www.w3.org/2000/svg"
 width="1173.658390pt" height="287.501260pt" viewBox="0 0 1173.658390 287.501260"
 preserveAspectRatio="xMidYMid meet">
<metadata>
Created by potrace 1.16, written by Peter Selinger 2001-2019
</metadata>
<g transform="translate(0.003683,287.933637) scale(0.100000,-0.100000)"
fill="#000000" stroke="none">
<path d="M10183 2858 c-24 -26 -38 -76 -84 -298 -38 -188 -38 -190 -16 -204
37 -24 50 3 92 185 l40 174 8 -75 c5 -41 5 -307 0 -590 -13 -834 -11 -1016 10
-1072 27 -69 54 -83 157 -82 80 0 252 24 435 60 128 26 260 71 409 142 200 94
273 97 392 16 66 -45 96 -50 108 -19 9 23 -3 41 -49 80 -73 59 -139 85 -222
85 -97 0 -157 -14 -283 -67 -58 -24 -148 -57 -200 -74 -119 -37 -566 -121
-602 -114 -23 5 -28 13 -33 50 -4 23 -2 220 4 437 13 483 14 1064 1 1175 -10
91 -42 176 -74 198 -30 22 -69 18 -93 -7z"/>
<path d="M6597 2508 c-32 -25 -36 -60 -22 -178 14 -112 22 -130 56 -130 34 0
41 24 33 126 -6 83 -5 96 8 92 60 -24 189 -59 243 -68 89 -14 113 -1 105 60
-2 22 -30 40 -61 40 -15 0 -81 16 -148 35 -126 37 -186 43 -214 23z"/>
<path d="M858 2366 c-30 -32 -240 -419 -299 -549 -109 -238 -431 -1099 -503
-1342 -55 -188 -71 -347 -41 -405 39 -76 262 -88 452 -25 110 37 418 188 545
269 l108 67 31 -36 c42 -47 100 -80 179 -100 92 -24 324 -16 430 14 92 27 319
136 381 184 44 34 49 35 85 25 23 -6 95 -9 175 -6 135 4 137 5 220 45 148 71
263 174 357 320 85 132 126 299 89 357 -55 84 -235 48 -576 -115 -133 -64
-149 -69 -210 -69 -79 0 -156 -32 -214 -88 -52 -50 -76 -100 -84 -172 -8 -77
14 -136 68 -185 49 -44 52 -41 -106 -119 -180 -88 -232 -101 -420 -101 -146 0
-164 2 -210 23 -52 24 -81 46 -96 73 -7 14 7 28 68 75 42 31 130 109 196 173
225 219 328 430 253 518 -23 26 -29 28 -103 28 -68 0 -87 -4 -143 -32 -132
-65 -236 -174 -313 -329 -50 -100 -68 -166 -74 -281 l-6 -101 -86 -57 c-163
-107 -512 -272 -643 -304 -65 -15 -229 -14 -252 2 -37 27 9 238 119 552 308
878 397 1098 580 1447 63 120 115 222 115 227 0 13 -29 41 -41 41 -6 0 -20
-11 -31 -24z m2149 -1232 c10 -27 -17 -121 -57 -202 -72 -144 -209 -279 -350
-346 -60 -28 -75 -31 -187 -34 -68 -2 -123 -2 -123 0 0 3 18 25 41 49 113 121
167 259 129 329 -9 17 -4 23 37 43 71 36 301 137 358 158 65 23 143 25 152 3z
m-1337 -14 c0 -23 -51 -133 -86 -187 -49 -73 -196 -227 -294 -306 l-75 -60 -3
31 c-5 49 24 149 70 242 75 149 241 289 346 290 23 0 42 -5 42 -10z m714 -258
c-1 -17 -12 -51 -23 -76 -23 -46 -129 -169 -162 -187 -21 -11 -62 6 -92 39
-43 48 -28 155 30 209 41 40 46 40 61 8 16 -36 54 -32 110 10 55 43 78 42 76
-3z"/>
<path d="M4987 2344 c-188 -34 -408 -128 -555 -236 -78 -58 -94 -88 -89 -168
8 -116 50 -185 98 -159 23 12 23 34 -1 114 -17 60 -2 86 82 143 166 112 367
188 555 211 l65 8 -7 -46 c-3 -25 -20 -113 -36 -196 -16 -82 -40 -229 -54
-325 -14 -96 -53 -359 -85 -584 -48 -330 -63 -411 -77 -421 -13 -9 -18 -31
-21 -82 l-4 -69 -71 -35 c-84 -40 -102 -62 -84 -99 14 -27 49 -32 115 -16 30
7 32 6 32 -18 0 -30 32 -66 59 -66 38 0 60 32 68 99 l8 65 217 97 c381 171
481 204 716 234 139 18 149 20 180 48 37 34 30 81 -28 172 -51 81 -60 105 -37
105 6 0 135 9 286 20 151 11 276 18 279 15 3 -2 -15 -49 -40 -102 -91 -194
-133 -374 -127 -537 4 -73 7 -88 28 -110 31 -33 56 -33 103 -1 54 37 65 62 40
88 -20 19 -22 19 -46 4 -14 -10 -30 -17 -36 -17 -14 0 -13 58 4 170 19 120 54
232 122 387 30 67 54 129 54 137 0 8 -11 27 -24 43 l-24 27 -128 -2 c-265 -5
-523 -22 -558 -36 -76 -32 -72 -89 15 -216 34 -50 59 -93 57 -96 -3 -2 -57
-11 -119 -19 -152 -20 -251 -41 -354 -74 -47 -15 -85 -24 -85 -20 0 4 12 18
28 31 182 157 362 460 419 706 26 112 25 392 -1 480 -36 122 -151 258 -258
307 -105 48 -157 55 -388 54 -137 -1 -243 -6 -293 -15z m550 -98 c29 -8 73
-24 97 -35 55 -27 161 -137 186 -193 55 -124 54 -395 -2 -568 -114 -357 -338
-613 -703 -806 -122 -64 -117 -68 -90 72 29 158 196 1352 202 1447 l6 97 126
0 c76 0 147 -6 178 -14z"/>
<path d="M9290 1747 c-46 -23 -34 -77 17 -77 l25 0 -5 -117 c-4 -104 -10 -133
-46 -243 -117 -349 -174 -606 -153 -679 14 -46 53 -68 93 -52 62 23 158 161
255 366 28 60 118 236 199 390 152 288 158 306 108 313 -17 3 -37 -25 -116
-165 -52 -92 -142 -265 -200 -383 -104 -212 -167 -321 -201 -349 -16 -14 -17
-12 -11 25 11 66 82 321 131 474 41 126 48 159 52 253 6 143 -2 193 -38 229
-31 31 -69 36 -110 15z"/>
<path d="M8320 1534 c-160 -91 -218 -283 -114 -380 l33 -32 -69 -66 c-83 -78
-194 -135 -320 -166 -150 -35 -459 -23 -571 24 -37 16 -89 53 -89 65 0 4 51
42 114 84 143 96 209 155 235 210 55 113 -1 189 -139 191 -82 1 -144 -28 -208
-99 -67 -74 -100 -156 -117 -287 -6 -43 -11 -51 -68 -96 -34 -27 -88 -73 -119
-103 -57 -54 -58 -54 -58 -27 0 17 -7 31 -19 38 -31 16 -57 -16 -82 -103 -32
-110 -15 -151 56 -133 14 4 73 52 132 109 59 56 125 116 146 131 l38 29 37
-35 c86 -82 173 -103 437 -102 170 1 211 4 277 22 176 48 304 120 404 228 l50
55 55 -20 c30 -11 115 -39 189 -62 218 -68 278 -100 249 -135 -12 -14 -81 -54
-94 -54 -4 0 -3 9 0 20 8 25 -10 50 -35 50 -10 0 -42 -19 -72 -43 -84 -68
-185 -138 -241 -166 -48 -24 -52 -29 -52 -61 0 -28 5 -36 27 -44 21 -7 41 -3
100 22 40 17 134 55 209 85 75 30 158 66 184 81 120 71 112 190 -17 255 -32
16 -143 57 -248 90 -104 34 -190 65 -190 70 0 4 18 46 39 92 46 99 74 199 65
234 -14 58 -81 71 -154 29z m50 -168 c-13 -33 -34 -83 -47 -109 -24 -47 -25
-48 -44 -31 -45 41 -7 157 69 209 32 22 37 23 40 9 2 -9 -6 -44 -18 -78z
m-922 -12 c21 -6 14 -23 -29 -69 -36 -39 -207 -165 -224 -165 -12 0 4 61 26
105 29 55 77 104 124 126 36 16 59 17 103 3z"/>
</g>
</svg>
